<svg id="Group_97" data-name="Group 97" xmlns="http://www.w3.org/2000/svg" xmlns:xlink="http://www.w3.org/1999/xlink" width="27" height="26.708" viewBox="0 0 27 26.708">
  <defs>
    <clipPath id="clip-path">
      <rect id="Rectangle_40" data-name="Rectangle 40" width="27" height="26.708" transform="translate(0 0)" fill="#fff"/>
    </clipPath>
  </defs>
  <g id="Group_96" data-name="Group 96" transform="translate(0 0)" clip-path="url(#clip-path)">
    <path id="Path_64" data-name="Path 64" d="M24.229,5.211a13.268,13.268,0,0,0-8.857-5.1A13.472,13.472,0,0,0,9.71.591l-.1.031a1.008,1.008,0,0,0-.35-.115,1.052,1.052,0,0,0-1.16,1.3,12.766,12.766,0,0,0-6.84,8.5c-.022,0-.043-.013-.066-.015a1.053,1.053,0,0,0-.845,1.826l-.007.08A13.351,13.351,0,0,0,11.916,26.594a13.61,13.61,0,0,0,1.755.115A13.358,13.358,0,0,0,26.885,15.08a13.265,13.265,0,0,0-2.656-9.869m-9.271,10.02.921.708c.015.008.032.013.047.02a2.4,2.4,0,0,0,.306.131,2.456,2.456,0,0,0,.781.127,4.121,4.121,0,0,0,1.679-.348,4.507,4.507,0,0,0,1.384-.94c.1-.1.187-.2.275-.3l0,0s.457-.668,1-.31a.546.546,0,0,1,.129.839c-.1.14-.21.276-.325.406a5.6,5.6,0,0,1-1.549,1.225,5.365,5.365,0,0,1-1.829.6l-.017,0,2.813,2.162a.612.612,0,0,1-.293,1.092.614.614,0,0,1-.216-.01.6.6,0,0,1-.237-.111L18,19.112l-1.164-.893-.716-.558-1.9-1.459a.611.611,0,0,1-.113-.858.583.583,0,0,1,.405-.234.624.624,0,0,1,.14,0,.589.589,0,0,1,.312.123m-2.294-3.046a.594.594,0,0,1-.6.629.635.635,0,0,1-.626-.654V9.734a.612.612,0,0,1,1.225,0Zm-.629,2.151c.56,0,.623.564.629.69v5.013a.612.612,0,0,1-1.225,0V14.955a.589.589,0,0,1,.6-.619M8.572,1.483A.556.556,0,0,1,9.121,1a.568.568,0,0,1,.073,0,.555.555,0,0,1-.071,1.105.565.565,0,0,1-.073,0,.556.556,0,0,1-.479-.622M5.856,5.916a1.05,1.05,0,0,1,.8.375H17a5.425,5.425,0,0,1,2.151.434,5.571,5.571,0,0,1,1.77,1.193,5.772,5.772,0,0,1,1.2,1.773,5.286,5.286,0,0,1,.368,1.258.556.556,0,0,1-.536.671.632.632,0,0,1-.695-.587c0-.009,0-.019,0-.028h0a4.105,4.105,0,0,0-.252-.816A4.4,4.4,0,0,0,20.077,8.8a4.517,4.517,0,0,0-1.384-.94,4.133,4.133,0,0,0-1.679-.348H6.758a1.055,1.055,0,1,1-.9-1.6M.506,11.269a.555.555,0,0,1,.549-.483.617.617,0,0,1,.073,0A.555.555,0,0,1,1.058,11.9a.565.565,0,0,1-.073,0,.556.556,0,0,1-.478-.622m26.136,3.779A13.114,13.114,0,0,1,13.671,26.463a13.342,13.342,0,0,1-1.724-.113A13.106,13.106,0,0,1,.571,12.412a1.127,1.127,0,0,0,.334.1A1.169,1.169,0,0,0,1.3,12.5,12.375,12.375,0,1,0,15.245,1.081a12.473,12.473,0,0,0-4.955.361,1.171,1.171,0,0,0-.3-.679A13.213,13.213,0,0,1,15.341.354a13.108,13.108,0,0,1,11.3,14.694" transform="translate(0 0)" fill="#fff"/>
    <path id="Path_65" data-name="Path 65" d="M22.174,27.281a.555.555,0,1,0-.555-.555.556.556,0,0,0,.555.555" transform="translate(-16.318 -19.753)" fill="#fff"/>
  </g>
</svg>
