<svg id="Group_75" data-name="Group 75" xmlns="http://www.w3.org/2000/svg" xmlns:xlink="http://www.w3.org/1999/xlink" width="31.493" height="28.087" viewBox="0 0 31.493 28.087">
  <defs>
    <clipPath id="clip-path">
      <rect id="Rectangle_25" data-name="Rectangle 25" width="31.493" height="28.087" fill="#ffa179"/>
    </clipPath>
  </defs>
  <g id="Group_74" data-name="Group 74" clip-path="url(#clip-path)">
    <path id="Path_49" data-name="Path 49" d="M404.68,59.88a27.362,27.362,0,0,0-8.662,4.487q.067.181.13.363a17.8,17.8,0,0,1,0,12.261,25.59,25.59,0,0,1-2.369,4.94,29.731,29.731,0,0,1-2.377,3.338c2.842-1.1,8.52-3.838,11.544-9.077,4.139-7.173,1.734-16.312,1.734-16.312" transform="translate(-373.883 -57.2)" fill="#ffa179"/>
    <path id="Path_50" data-name="Path 50" d="M9.35,78.991a17.8,17.8,0,0,1,0-12.261c.029-.083.059-.167.089-.251A27.34,27.34,0,0,0,.657,61.974s-2.349,9.154,1.835,16.3c3.062,5.231,8.775,7.937,11.618,9.012a29.723,29.723,0,0,1-2.391-3.356,25.588,25.588,0,0,1-2.369-4.94" transform="translate(0 -59.2)" fill="#ffa179"/>
    <path id="Path_51" data-name="Path 51" d="M236.069,13.661a16.769,16.769,0,0,0-.891-5.233,23.7,23.7,0,0,0-2.28-4.863A27.792,27.792,0,0,0,230.312,0a27.791,27.791,0,0,0-2.586,3.564,23.615,23.615,0,0,0-2.317,4.977,16.7,16.7,0,0,0-.853,5.119c0,5.917,3.62,11.064,5.412,13.249.124.152.24.289.345.412.1-.117.211-.249.33-.393a28.013,28.013,0,0,0,2.256-3.171,20.033,20.033,0,0,0,3.17-10.1" transform="translate(-214.504)" fill="#ffa179"/>
  </g>
</svg>
